# xmcd
#
# Track frame offsets:
#	150
#	11957
#	24812
#	36865
#	47965
#	59135
#	69550
#	82792
#	97307
#	108990
#	119825
#	129457
#	140310
#	152950
#	162427
#	175557
#	187537
#	196577
#	207060
#
# Disc length: 2903 seconds
#
# Revision: 1
# Processed by: cddbd v1.5.1PL0 Copyright (c) Steve Scherf et al.
# Submitted via: EasyCDDAExtractor 7.0.9.1
#
DISCID=020b5513
DTITLE=Patsy Cline - Walkin' After Midnight
DYEAR=1900
DGENRE=
TTITLE0=Walkin' After Midnight
TTITLE1=Yes, I Understand
TTITLE2=Today, Tomorrow And Forever
TTITLE3=There He Goes
TTITLE4=Stop The World (And Let Me Off)
TTITLE5=Too Many Secrets
TTITLE6=If I Could See The World (Through The Eyes Of A Child)
TTITLE7=Then You'll Know
TTITLE8=Let The Teardrops Fall
TTITLE9=Stop, Look And Listen
TTITLE10=I'm Moving Along
TTITLE11=I Can See An Angel
TTITLE12=Fingerprints
TTITLE13=Love, Love, Love Me Honey
TTITLE14=Life's Railway To Heaven
TTITLE15=If I Could Only Stay Asleep
TTITLE16=Try Again
TTITLE17=How Can I Face Tomorrow
TTITLE18=I Don't Wanna
EXTD=
EXTT0=
EXTT1=
EXTT2=
EXTT3=
EXTT4=
EXTT5=
EXTT6=
EXTT7=
EXTT8=
EXTT9=
EXTT10=
EXTT11=
EXTT12=
EXTT13=
EXTT14=
EXTT15=
EXTT16=
EXTT17=
EXTT18=
PLAYORDER=
